<svg width="180" height="39" viewBox="0 0 180 39" fill="none" xmlns="http://www.w3.org/2000/svg">
<rect width="180" height="39" rx="19.5" fill="#1351B4"/>
<path d="M28.8867 15.0727H30.6668L35.3016 27H33.3164L32.0613 23.7598H27.4594L26.2125 27H24.2109L28.8867 15.0727ZM31.6922 22.3652L29.7727 17.1398L27.7957 22.3652H31.6922ZM40.2481 27.1641C39.3621 27.1641 38.5664 26.9535 37.8609 26.5324C37.1609 26.1113 36.625 25.5563 36.2531 24.8672C35.8813 24.1727 35.6953 23.4152 35.6953 22.5949C35.6953 21.977 35.802 21.3945 36.0152 20.8477C36.234 20.2953 36.5375 19.8141 36.9258 19.4039C37.3141 18.9883 37.7953 18.6602 38.3695 18.4195C38.9438 18.1789 39.5699 18.0586 40.2481 18.0586C41.134 18.0586 41.9051 18.2555 42.5613 18.6492C43.2176 19.043 43.7152 19.5762 44.0543 20.2488L42.2578 20.8148C42.05 20.4484 41.7656 20.1613 41.4047 19.9535C41.0438 19.7457 40.6445 19.6418 40.207 19.6418C39.4633 19.6418 38.8398 19.9207 38.3367 20.4785C37.8391 21.0309 37.5902 21.7363 37.5902 22.5949C37.5902 23.4371 37.8473 24.148 38.3613 24.7277C38.8754 25.302 39.4961 25.5891 40.2234 25.5891C40.6773 25.5891 41.1039 25.4742 41.5031 25.2445C41.9023 25.0094 42.1703 24.7223 42.307 24.3832L44.1281 24.9164C43.8328 25.5891 43.3379 26.1332 42.6434 26.5488C41.9488 26.959 41.1504 27.1641 40.2481 27.1641ZM45.3176 24.3504C45.1043 23.798 44.9977 23.2184 44.9977 22.6113C44.9977 22.0043 45.107 21.4246 45.3258 20.8723C45.5445 20.3199 45.8453 19.8359 46.2281 19.4203C46.6109 19.0047 47.0867 18.6738 47.6555 18.4277C48.2297 18.1816 48.8477 18.0586 49.5094 18.0586C50.3953 18.0586 51.1856 18.2691 51.8801 18.6902C52.5801 19.1113 53.1133 19.6664 53.4797 20.3555C53.8461 21.0445 54.0293 21.7965 54.0293 22.6113C54.0293 23.4262 53.8461 24.1781 53.4797 24.8672C53.1133 25.5563 52.5801 26.1113 51.8801 26.5324C51.1856 26.9535 50.3953 27.1641 49.5094 27.1641C48.8367 27.1641 48.2133 27.041 47.6391 26.7949C47.0703 26.5488 46.5945 26.218 46.2117 25.8023C45.8289 25.3867 45.5309 24.9027 45.3176 24.3504ZM47.6473 24.7441C48.1559 25.3074 48.7766 25.5891 49.5094 25.5891C50.2422 25.5891 50.8629 25.302 51.3715 24.7277C51.8801 24.1535 52.1344 23.448 52.1344 22.6113C52.1344 21.7746 51.8801 21.0719 51.3715 20.5031C50.8629 19.9289 50.2422 19.6418 49.5094 19.6418C48.782 19.6418 48.1641 19.9316 47.6555 20.5113C47.1469 21.091 46.8926 21.7992 46.8926 22.6359C46.8926 23.4781 47.1441 24.1809 47.6473 24.7441ZM69.1148 27H67.2609V22.0781C67.2609 20.4977 66.7359 19.7074 65.6859 19.7074C65.1664 19.7074 64.6879 19.9016 64.2504 20.2898C63.8129 20.6727 63.5012 21.173 63.3152 21.791V27H61.4695V22.0781C61.4695 20.4977 60.9473 19.7074 59.9027 19.7074C59.3832 19.7074 58.902 19.8988 58.459 20.2816C58.016 20.6645 57.7016 21.1621 57.5156 21.7746V27H55.6699V18.2145H57.3516V19.9781C57.6961 19.3602 58.1527 18.8871 58.7215 18.559C59.2902 18.2254 59.9356 18.0586 60.6574 18.0586C61.352 18.0586 61.9152 18.2445 62.3473 18.6164C62.7848 18.9828 63.0582 19.4641 63.1676 20.0602C63.5395 19.4094 64.0043 18.9145 64.5621 18.5754C65.1254 18.2309 65.7625 18.0586 66.4734 18.0586C68.2344 18.0586 69.1148 19.2535 69.1148 21.6434V27ZM73.0852 25.3512V30.5766H71.2395V18.2145H72.8719V19.7895C73.2164 19.2535 73.6566 18.8324 74.1926 18.5262C74.734 18.2145 75.3301 18.0586 75.9809 18.0586C76.566 18.0586 77.1184 18.1816 77.6379 18.4277C78.1574 18.6738 78.5977 19.002 78.9586 19.4121C79.3195 19.8223 79.6039 20.3063 79.8117 20.8641C80.025 21.4164 80.1316 21.9934 80.1316 22.5949C80.1316 23.4371 79.9676 24.2055 79.6395 24.9C79.3113 25.5945 78.8465 26.1469 78.2449 26.557C77.6488 26.9617 76.9762 27.1641 76.227 27.1641C75.5434 27.1641 74.9281 27.0027 74.3813 26.6801C73.8398 26.352 73.4078 25.909 73.0852 25.3512ZM78.2285 22.5949C78.2285 21.7746 77.966 21.0773 77.441 20.5031C76.916 19.9289 76.2652 19.6418 75.4887 19.6418C74.9965 19.6418 74.5043 19.8113 74.0121 20.1504C73.5254 20.4895 73.2164 20.8969 73.0852 21.3727V23.6695C73.3148 24.2219 73.6648 24.6813 74.1352 25.0477C74.6055 25.4086 75.1031 25.5891 75.6281 25.5891C76.1313 25.5891 76.5824 25.4469 76.9816 25.1625C77.3863 24.8727 77.6953 24.5008 77.9086 24.0469C78.1219 23.593 78.2285 23.109 78.2285 22.5949ZM81.1488 24.4324C81.1488 23.5957 81.4961 22.923 82.1906 22.4145C82.8852 21.9004 83.7875 21.6434 84.8977 21.6434C85.7891 21.6434 86.552 21.7609 87.1863 21.9961V21.4383C87.1863 20.8203 86.9977 20.3391 86.6203 19.9945C86.243 19.6445 85.7125 19.4695 85.0289 19.4695C84.5586 19.4695 84.1047 19.5516 83.6672 19.7156C83.2297 19.8797 82.7539 20.1285 82.2398 20.4621L81.6246 19.2234C82.7895 18.4469 83.9926 18.0586 85.234 18.0586C86.4207 18.0586 87.3504 18.373 88.023 19.002C88.6957 19.6254 89.032 20.5059 89.032 21.6434V24.9164C89.032 25.1242 89.0676 25.2773 89.1387 25.3758C89.2152 25.4688 89.341 25.518 89.516 25.5234V27C89.2207 27.0547 88.9582 27.082 88.7285 27.082C88.3566 27.082 88.0641 26.9918 87.8508 26.8113C87.643 26.6309 87.5199 26.4039 87.4816 26.1305L87.4324 25.6219C87.0551 26.1086 86.5711 26.4887 85.9805 26.7621C85.3953 27.0301 84.7938 27.1641 84.1758 27.1641C83.3008 27.1641 82.5762 26.9043 82.002 26.3848C81.4332 25.8598 81.1488 25.209 81.1488 24.4324ZM86.7434 24.9656C87.0387 24.6703 87.1863 24.3969 87.1863 24.1453V23.1363C86.541 22.8902 85.8684 22.7672 85.1684 22.7672C84.4902 22.7672 83.9406 22.9039 83.5195 23.1773C83.1039 23.4508 82.8961 23.8172 82.8961 24.2766C82.8961 24.6922 83.0547 25.0531 83.3719 25.3594C83.6945 25.6602 84.1348 25.8105 84.6926 25.8105C85.0754 25.8105 85.4527 25.7313 85.8246 25.5727C86.1965 25.4141 86.5027 25.2117 86.7434 24.9656ZM99.1547 27H97.3008V22.0781C97.3008 21.2633 97.1695 20.6645 96.907 20.2816C96.65 19.8988 96.2617 19.7074 95.7422 19.7074C95.2062 19.7074 94.6812 19.907 94.1672 20.3063C93.6586 20.7 93.3086 21.1895 93.1172 21.7746V27H91.2715V18.2145H92.9531V19.9781C93.2922 19.3875 93.7816 18.9199 94.4215 18.5754C95.0613 18.2309 95.7641 18.0586 96.5297 18.0586C96.9398 18.0586 97.298 18.1215 97.6043 18.2473C97.916 18.373 98.1676 18.5426 98.359 18.7559C98.5559 18.9691 98.7145 19.2344 98.8348 19.5516C98.9551 19.8633 99.0371 20.1887 99.0809 20.5277C99.1301 20.8613 99.1547 21.2332 99.1547 21.6434V27ZM109.179 27H107.325V22.0781C107.325 21.2906 107.183 20.7 106.898 20.3063C106.614 19.907 106.204 19.7074 105.668 19.7074C105.154 19.7074 104.648 19.9043 104.15 20.298C103.658 20.6918 103.322 21.184 103.141 21.7746V27H101.296V14.7363H103.141V19.9781C103.48 19.382 103.94 18.9145 104.52 18.5754C105.099 18.2309 105.728 18.0586 106.406 18.0586C108.255 18.0586 109.179 19.2535 109.179 21.6434V27ZM110.68 24.4324C110.68 23.5957 111.027 22.923 111.722 22.4145C112.416 21.9004 113.319 21.6434 114.429 21.6434C115.32 21.6434 116.083 21.7609 116.718 21.9961V21.4383C116.718 20.8203 116.529 20.3391 116.152 19.9945C115.774 19.6445 115.244 19.4695 114.56 19.4695C114.09 19.4695 113.636 19.5516 113.198 19.7156C112.761 19.8797 112.285 20.1285 111.771 20.4621L111.156 19.2234C112.321 18.4469 113.524 18.0586 114.765 18.0586C115.952 18.0586 116.882 18.373 117.554 19.002C118.227 19.6254 118.563 20.5059 118.563 21.6434V24.9164C118.563 25.1242 118.599 25.2773 118.67 25.3758C118.746 25.4688 118.872 25.518 119.047 25.5234V27C118.752 27.0547 118.489 27.082 118.26 27.082C117.888 27.082 117.595 26.9918 117.382 26.8113C117.174 26.6309 117.051 26.4039 117.013 26.1305L116.964 25.6219C116.586 26.1086 116.102 26.4887 115.512 26.7621C114.927 27.0301 114.325 27.1641 113.707 27.1641C112.832 27.1641 112.107 26.9043 111.533 26.3848C110.964 25.8598 110.68 25.209 110.68 24.4324ZM116.275 24.9656C116.57 24.6703 116.718 24.3969 116.718 24.1453V23.1363C116.072 22.8902 115.4 22.7672 114.7 22.7672C114.021 22.7672 113.472 22.9039 113.051 23.1773C112.635 23.4508 112.427 23.8172 112.427 24.2766C112.427 24.6922 112.586 25.0531 112.903 25.3594C113.226 25.6602 113.666 25.8105 114.224 25.8105C114.607 25.8105 114.984 25.7313 115.356 25.5727C115.728 25.4141 116.034 25.2117 116.275 24.9656ZM125.741 19.8059C125.019 19.8223 124.379 19.9918 123.821 20.3145C123.269 20.6316 122.878 21.0691 122.648 21.627V27H120.803V18.2145H122.517V20.1832C122.823 19.5816 123.22 19.0977 123.707 18.7313C124.199 18.3648 124.721 18.1652 125.273 18.1324C125.509 18.1324 125.664 18.1379 125.741 18.1488V19.8059ZM131.098 27V15.0727H136.29C136.81 15.0727 137.302 15.1848 137.767 15.409C138.237 15.6332 138.631 15.9285 138.948 16.2949C139.265 16.6613 139.517 17.077 139.703 17.5418C139.889 18.0066 139.982 18.477 139.982 18.9527C139.982 19.7621 139.768 20.4949 139.342 21.1512C138.915 21.802 138.352 22.2395 137.652 22.4637L140.457 27H138.341L135.749 22.8492H132.976V27H131.098ZM132.976 21.184H136.274C136.793 21.184 137.223 20.968 137.562 20.5359C137.901 20.0984 138.07 19.5707 138.07 18.9527C138.07 18.3457 137.879 17.8262 137.496 17.3941C137.113 16.9566 136.67 16.7379 136.167 16.7379H132.976V21.184ZM142.205 27V15.0727H147.209C147.898 15.0727 148.529 15.2641 149.104 15.6469C149.683 16.0297 150.129 16.5164 150.441 17.107C150.752 17.6977 150.908 18.3129 150.908 18.9527C150.908 19.4504 150.821 19.9344 150.646 20.4047C150.471 20.875 150.227 21.2906 149.916 21.6516C149.609 22.0125 149.227 22.3023 148.767 22.5211C148.313 22.7398 147.827 22.8492 147.307 22.8492H144.083V27H142.205ZM144.083 21.184H147.192C147.717 21.184 148.146 20.9734 148.48 20.5523C148.819 20.1313 148.989 19.598 148.989 18.9527C148.989 18.3074 148.803 17.777 148.431 17.3613C148.059 16.9457 147.613 16.7379 147.094 16.7379H144.083V21.184ZM152.672 27V15.0727H154.55V27H152.672Z" fill="white"/>
</svg>
