<svg width="1292" height="92" viewBox="0 0 1292 92" fill="none" xmlns="http://www.w3.org/2000/svg">
<g filter="url(#filter0_d)">
<rect x="6" y="3" width="1280" height="80" fill="white"/>
</g>
<path d="M93.125 50.5C94.1406 50.5 95 49.6797 95 48.625V37.375C95 36.3594 94.1406 35.5 93.125 35.5H76.875C75.8203 35.5 75 36.3594 75 37.375V48.625C75 49.6797 75.8203 50.5 76.875 50.5H93.125ZM79.375 37.6875C80.5469 37.6875 81.5625 38.7031 81.5625 39.875C81.5625 41.0859 80.5469 42.0625 79.375 42.0625C78.1641 42.0625 77.1875 41.0859 77.1875 39.875C77.1875 38.7031 78.1641 37.6875 79.375 37.6875ZM77.5 48V46.125L80.2734 43.3516C80.4688 43.1562 80.7422 43.1562 80.9375 43.3516L83.125 45.5L88.3984 40.2266C88.5938 40.0312 88.8672 40.0312 89.0625 40.2266L92.5 43.625V48H77.5Z" fill="#333333"/>
<rect x="46.5" y="29.5" width="77" height="27" stroke="#333333" stroke-dasharray="3 3"/>
<defs>
<filter id="filter0_d" x="0" y="0" width="1292" height="92" filterUnits="userSpaceOnUse" color-interpolation-filters="sRGB">
<feFlood flood-opacity="0" result="BackgroundImageFix"/>
<feColorMatrix in="SourceAlpha" type="matrix" values="0 0 0 0 0 0 0 0 0 0 0 0 0 0 0 0 0 0 127 0"/>
<feOffset dy="3"/>
<feGaussianBlur stdDeviation="3"/>
<feColorMatrix type="matrix" values="0 0 0 0 0.2 0 0 0 0 0.2 0 0 0 0 0.2 0 0 0 0.16 0"/>
<feBlend mode="normal" in2="BackgroundImageFix" result="effect1_dropShadow"/>
<feBlend mode="normal" in="SourceGraphic" in2="effect1_dropShadow" result="shape"/>
</filter>
</defs>
</svg>
